<svg width="26" height="26" viewBox="0 0 26 26" fill="none" xmlns="http://www.w3.org/2000/svg">
<g clip-path="url(#clip0_1_294)">
<path d="M24 5.21691V20.7788C23.9999 21.6331 23.6907 22.4523 23.1404 23.0564C22.5901 23.6605 21.8437 23.9999 21.0655 24H4.9345C4.15632 23.9996 3.41013 23.6601 2.85988 23.0561C2.30963 22.4521 2.00035 21.633 2 20.7788V5.21691C2.00092 4.3633 2.31051 3.545 2.86075 2.94181C3.41099 2.33862 4.15686 1.99987 4.9345 2H21.0655C21.8432 1.99962 22.5892 2.33828 23.1395 2.94153C23.6898 3.54478 23.9993 4.36322 24 5.21691Z" fill="#F2F2F2"/>
<path d="M24 11.0353V14.9624H14.7901V24H11.2099V14.9624H2V11.0353H11.2099V2H14.7901V11.0353H24Z" fill="#EF2B2D"/>
<path d="M20.773 6.67195L19.8071 6.72265L19.8595 5.75671H18.8394L18.891 6.72265L17.925 6.67195V7.68128L18.891 7.63875L18.8394 8.60468H19.8595L19.8071 7.63875L20.773 7.68128V6.67195Z" fill="#EF2B2D"/>
<path d="M8.07493 6.67195L7.10942 6.72265L7.16184 5.75671H6.14133L6.1929 6.72265L5.22696 6.67195V7.68128L6.1929 7.63875L6.14133 8.60468H7.16184L7.10942 7.63875L8.07493 7.68128V6.67195Z" fill="#EF2B2D"/>
<path d="M20.773 18.3157L19.8071 18.3664L19.8595 17.4009H18.8394L18.891 18.3664L17.925 18.3157V19.3254L18.891 19.2825L18.8394 20.2484H19.8595L19.8071 19.2825L20.773 19.3254V18.3157Z" fill="#EF2B2D"/>
<path d="M8.07493 18.3157L7.10942 18.3664L7.16184 17.4009H6.14133L6.1929 18.3664L5.22696 18.3157V19.3254L6.1929 19.2825L6.14133 20.2484H7.16184L7.10942 19.2825L8.07493 19.3254V18.3157Z" fill="#EF2B2D"/>
<path opacity="0.12" d="M20.9668 4.32031H5.04389C4.82227 4.32026 4.6028 4.36386 4.39803 4.44863C4.19325 4.53341 4.00719 4.65769 3.85045 4.81438C3.69372 4.97108 3.56939 5.15711 3.48456 5.36186C3.39974 5.56661 3.35608 5.78607 3.35608 6.0077V15.0247C3.35661 15.1936 3.39328 15.3604 3.46363 15.5139C3.53398 15.6674 3.63638 15.8041 3.76395 15.9148C3.89151 16.0255 4.04129 16.1076 4.20321 16.1556C4.36513 16.2035 4.53545 16.2163 4.70272 16.193C14.6925 14.8515 19.5849 8.69883 21.5508 5.33223C21.6102 5.22974 21.6416 5.11338 21.6418 4.99488C21.6419 4.87638 21.6108 4.75994 21.5516 4.65731C21.4924 4.55468 21.4071 4.46948 21.3044 4.41031C21.2018 4.35114 21.0853 4.3201 20.9668 4.32031Z" fill="#080B15"/>
</g>
<rect x="1.45" y="1.45" width="23.1" height="23.1" rx="2.55" stroke="#1B1D21" stroke-width="1.1"/>
<defs>
<clipPath id="clip0_1_294">
<rect x="2" y="2" width="22" height="22" rx="2" fill="white"/>
</clipPath>
</defs>
</svg>
