<svg width="22" height="22" viewBox="0 0 22 22" fill="none" xmlns="http://www.w3.org/2000/svg">
<g clip-path="url(#clip0_1_316)">
<mask id="mask0_1_316" style="mask-type:luminance" maskUnits="userSpaceOnUse" x="0" y="0" width="22" height="22">
<path d="M19.25 0.6875H2.75C1.61091 0.6875 0.6875 1.61091 0.6875 2.75V19.25C0.6875 20.3891 1.61091 21.3125 2.75 21.3125H19.25C20.3891 21.3125 21.3125 20.3891 21.3125 19.25V2.75C21.3125 1.61091 20.3891 0.6875 19.25 0.6875Z" fill="white"/>
</mask>
<g mask="url(#mask0_1_316)">
<mask id="mask1_1_316" style="mask-type:luminance" maskUnits="userSpaceOnUse" x="0" y="0" width="22" height="22">
<path d="M21.3125 0.6875H0.6875V21.3125H21.3125V0.6875Z" fill="white"/>
</mask>
<g mask="url(#mask1_1_316)">
<path d="M21.3125 0.687134H0.687469V21.3121H21.3125V0.687134Z" fill="#2B4896"/>
<path d="M9.80469 9.82605L-1.22351 22.0587H0.935669V22.7422L11.2925 11.1218L9.80469 9.82605Z" fill="white"/>
<path d="M-0.548584 23.6696L10.1151 11.7936L9.302 11.8733V11.8357L-1.04541 23.2184L-0.548584 23.6696Z" fill="#E32D3C"/>
<path d="M21.2601 -0.78833L10.2319 11.4443H12.3911V12.1278L22.7908 0.593384L21.2601 -0.78833Z" fill="white"/>
<path d="M21.7099 -0.625L10.9892 11.1713H11.8593V11.2089L22.2068 -0.173828L21.7099 -0.625Z" fill="#E32D3C"/>
<path d="M9.29182 12.4758L-1.27786 -0.155134L0.879854 -0.0755244L0.905054 -0.758531L10.8725 11.1515L9.29182 12.4758Z" fill="white"/>
<path d="M9.74738 12.3295L-0.5311 0.145961L0.338425 0.178042L0.339811 0.14047L10.2605 11.8969L9.74738 12.3295Z" fill="#E32D3C"/>
<path d="M12.7187 0.687134H9.28122V21.3121H12.7187V0.687134Z" fill="white"/>
<path d="M12.6543 10.23L23.6825 22.4626H21.5233V23.1461L11.1235 11.6117L12.6543 10.23Z" fill="white"/>
<path d="M12.2045 10.3925L22.9252 22.1887H22.0551V22.2263L11.7076 10.8436L12.2045 10.3925Z" fill="#E32D3C"/>
<path d="M21.3125 12.7184V9.28088L0.687469 9.28088V12.7184L21.3125 12.7184Z" fill="white"/>
<path d="M12.0312 0.687134H9.96872V21.3121H12.0312V0.687134Z" fill="#E32D3C"/>
<path d="M21.3125 12.0309V9.96838L0.687469 9.96838V12.0309L21.3125 12.0309Z" fill="#E32D3C"/>
</g>
</g>
</g>
<defs>
<clipPath id="clip0_1_316">
<rect width="22" height="22" fill="white"/>
</clipPath>
</defs>
</svg>
